<svg width="921" height="768" viewBox="0 0 921 768" fill="none" xmlns="http://www.w3.org/2000/svg">
<path d="M511.838 661.804H410.671V552.164H511.838V661.804Z" fill="#171717"/>
<path d="M149.515 176.151V565.771H772.993V176.151H149.515Z" stroke="#404040" stroke-width="26"/>
<path d="M602.368 685.233H320.141C317.237 685.233 314.883 682.877 314.883 679.973V645.556C314.883 642.651 317.237 640.296 320.141 640.296H602.368C605.272 640.296 607.626 642.651 607.626 645.556V679.973C607.626 682.877 605.272 685.233 602.368 685.233Z" fill="#404040"/>
<path d="M866.342 621.494H657.311C654.921 621.494 652.983 619.557 652.983 617.166V548.001C652.983 545.611 654.921 543.673 657.311 543.673H866.342C868.733 543.673 870.67 545.611 870.67 548.001V617.166C870.67 619.557 868.733 621.494 866.342 621.494Z" fill="#96B7FF"/>
<path d="M233.623 466.305H25.5951C20.848 466.305 17 462.457 17 457.709V418.596C17 413.848 20.848 410 25.5951 410H233.623C238.369 410 242.217 413.848 242.217 418.596V457.709C242.217 462.457 238.369 466.305 233.623 466.305Z" fill="#96B7FF"/>
<path d="M214.12 432.953H33.2634C32.4019 432.953 31.7036 432.255 31.7036 431.394V426.264C31.7036 425.403 32.4019 424.704 33.2634 424.704H214.12C214.981 424.704 215.679 425.403 215.679 426.264V431.394C215.679 432.255 214.981 432.953 214.12 432.953Z" fill="white"/>
<path d="M174.312 449.808H33.2634C32.4019 449.808 31.7036 449.109 31.7036 448.248V443.12C31.7036 442.259 32.4019 441.561 33.2634 441.561H174.312C175.174 441.561 175.872 442.259 175.872 443.12V448.248C175.872 449.109 175.174 449.808 174.312 449.808Z" fill="white"/>
<path d="M457.716 302.531L411.54 291.767V280.623L412.436 279.666C412.436 279.236 420.779 267.533 417.746 224.85C417.637 223.29 417.508 221.681 417.366 220.035L480.017 243.753L480.134 243.797C480.134 243.797 480.055 244.871 480.015 246.744C480 247.394 479.988 248.14 479.986 248.973C479.986 251.44 480.053 254.664 480.31 258.323C480.395 259.474 480.496 260.669 480.623 261.899C480.786 263.477 480.986 265.114 481.231 266.786C481.667 269.773 482.25 272.875 483.025 275.973C483.324 277.168 483.65 278.362 484.009 279.549C484.203 280.188 484.404 280.825 484.615 281.458C485.064 282.803 457.716 302.531 457.716 302.531Z" fill="#B28270"/>
<path d="M480.624 261.899C476.679 263.621 472.166 264.039 467.964 263.763C460.984 263.31 453.892 261.269 447.53 258.3C444.737 256.999 442.011 255.418 439.673 253.347C439.654 253.333 439.634 253.314 439.611 253.289C439.143 252.894 437.572 251.703 437.572 251.096V250.745L480.015 246.744C480 247.394 479.989 248.14 479.987 248.973C479.987 251.44 480.054 254.665 480.311 258.323C480.395 259.474 480.497 260.669 480.624 261.899Z" fill="#6A3824"/>
<path d="M480.399 250.007C480.197 250.21 479.992 250.412 479.781 250.611C471.528 258.438 460.427 259.931 449.592 257.955C445.529 257.216 441.788 255.929 438.358 254.06C434.295 251.854 430.668 248.841 427.476 244.958C423.288 239.872 420.013 234.045 417.544 227.843C415.561 222.859 414.097 217.626 413.1 212.327C411.987 206.432 412.173 200.593 411.504 194.715C411.504 194.709 410.195 183.28 410.195 183.28C410.195 183.28 425.026 155.819 426.334 154.888C427.644 153.958 459.063 146.505 459.936 146.505C460.809 146.505 491.356 172.111 491.356 172.111C492.252 172.863 491.688 179.855 491.755 181.208C491.916 184.41 492.089 187.611 492.231 190.815C492.513 197.213 492.686 203.624 492.419 210.027C491.865 223.281 490.245 240.06 480.399 250.007Z" fill="#B28270"/>
<path d="M453.518 232.166C456.698 233.025 460 233.542 463.288 233.325C466.576 233.11 469.86 232.132 472.538 230.209C472.582 231.462 472.106 232.684 471.45 233.751C470.244 235.707 468.392 237.257 466.253 238.101C463.666 239.122 460.684 239.166 458.225 237.821C456.021 236.617 454.348 234.524 453.518 232.166Z" fill="white"/>
<path d="M467.035 216.54C464.267 203.063 464.071 202.902 463.864 202.726C463.603 202.509 463.22 202.544 463.003 202.804C462.83 203.004 462.817 203.284 462.942 203.501C463.222 204.291 464.866 212.06 465.846 216.835L465.88 216.946C465.886 216.956 466.377 218.207 465.779 219.103C465.311 219.799 464.236 220.175 462.667 220.188C459.375 220.219 458.422 219.878 458.184 219.755C458.134 219.58 458.006 219.431 457.823 219.36C457.509 219.235 457.154 219.39 457.029 219.701C456.937 219.935 456.977 220.21 457.133 220.436C457.457 220.912 458.384 221.449 462.679 221.412C462.951 221.408 463.216 221.395 463.465 221.376C465.069 221.236 466.187 220.699 466.803 219.772C467.672 218.46 467.158 216.875 467.035 216.54Z" fill="#6A3824"/>
<path d="M437.671 203.931C437.752 203.931 437.835 203.908 437.907 203.858C444.591 199.265 449.335 203.562 449.534 203.748C449.703 203.906 449.97 203.898 450.127 203.727C450.286 203.558 450.277 203.294 450.108 203.135C450.056 203.085 444.687 198.179 437.432 203.165C437.24 203.296 437.192 203.558 437.322 203.748C437.405 203.867 437.537 203.933 437.671 203.931Z" fill="#171717"/>
<path d="M441.595 203.614C441.601 204.872 442.627 205.887 443.885 205.879C445.144 205.874 446.158 204.847 446.151 203.589C446.143 202.33 445.119 201.316 443.86 201.323C442.602 201.331 441.587 202.355 441.595 203.614Z" fill="#171717"/>
<path d="M484.508 203.662C484.644 203.662 484.774 203.597 484.855 203.476C484.985 203.282 484.934 203.021 484.74 202.893C477.427 197.991 472.115 202.958 472.063 203.01C471.897 203.169 471.891 203.435 472.052 203.602C472.211 203.769 472.478 203.775 472.645 203.616C472.84 203.428 477.535 199.075 484.272 203.591C484.345 203.639 484.427 203.662 484.508 203.662Z" fill="#171717"/>
<path d="M480.583 203.391C480.591 204.65 479.576 205.676 478.318 205.682C477.059 205.689 476.033 204.674 476.027 203.416C476.02 202.158 477.035 201.131 478.291 201.126C479.549 201.118 480.576 202.133 480.583 203.391Z" fill="#171717"/>
<path d="M433.35 195.204C433.678 194.333 434.706 193.955 435.504 193.658C436.503 193.286 437.541 193.031 438.594 192.868C440.699 192.541 442.843 192.572 444.961 192.735C446.575 192.858 448.196 193.057 449.73 193.572C450.411 193.8 451.081 194.095 451.637 194.548C451.942 194.795 452.226 195.127 452.228 195.521C452.228 195.874 451.988 196.194 451.687 196.382C451.388 196.568 451.033 196.647 450.686 196.712C448.771 197.071 446.816 197.155 444.869 197.184C442.437 197.22 440.002 197.17 437.574 197.034C436.643 196.982 435.709 196.919 434.794 196.739C434.422 196.668 434.044 196.57 433.741 196.344C433.273 195.991 433.206 195.584 433.35 195.204Z" fill="#171717"/>
<path d="M487.245 194.481C486.887 193.623 485.847 193.28 485.037 193.011C484.028 192.673 482.979 192.455 481.924 192.328C479.808 192.075 477.665 192.18 475.555 192.416C473.946 192.597 472.334 192.852 470.819 193.42C470.145 193.671 469.487 193.988 468.945 194.459C468.649 194.718 468.377 195.06 468.39 195.451C468.402 195.806 468.653 196.117 468.958 196.293C469.265 196.472 469.622 196.537 469.973 196.589C471.897 196.882 473.854 196.898 475.801 196.859C478.233 196.811 480.664 196.677 483.086 196.458C484.015 196.374 484.947 196.276 485.855 196.065C486.223 195.981 486.599 195.871 486.892 195.633C487.349 195.265 487.403 194.855 487.245 194.481Z" fill="#171717"/>
<path d="M710.863 296.958C709.616 300.463 708.435 303.991 707.034 307.436C701.951 319.945 694.728 331.57 685.979 341.755C678.961 349.923 666.308 377.858 666.308 377.858L628.582 355.062C628.582 355.062 638.116 337.638 638.483 329.643C638.849 321.647 634.617 304.725 635.766 297.512C636.915 290.299 640.207 280.713 645.258 275.379C645.809 274.797 646.511 274.218 647.309 274.308C648.274 274.419 648.857 275.436 649.208 276.355C650.463 279.63 650.817 283.486 650.528 286.969C650.177 291.186 649.051 298.284 651.297 302.178C652.561 304.368 659.54 293.066 659.54 293.066L676.924 264.039C676.924 264.039 681.664 255.075 685.723 257.885C687.753 259.293 688.117 263.021 688.047 266.192C688.016 267.51 687.912 268.732 687.82 269.649C687.692 270.938 687.592 271.63 687.761 271.156C688.589 268.831 692.252 260.379 695.931 257.548C699.035 255.159 702.906 261.473 702.325 267.558C702.217 268.686 701.956 269.804 701.509 270.859L699.862 275.095C699.887 275.068 700.084 274.851 700.404 274.521C700.406 274.519 700.406 274.519 700.406 274.519C701.747 273.146 705.189 269.817 706.915 270.063C708.484 270.285 709.509 274.68 708.143 281.137C707.623 283.608 706.75 286.382 705.425 289.338C705.446 289.317 705.571 289.191 705.776 288.995C707.128 287.702 711.928 283.411 712.661 286.868C713.374 290.234 711.966 293.858 710.863 296.958Z" fill="#B28270"/>
<path d="M688.047 266.192C688.016 267.51 687.913 268.732 687.821 269.648C685.958 274.536 681.467 286.004 676.456 296.428C676.366 296.618 676.207 296.751 676.025 296.814C675.843 296.875 675.635 296.868 675.447 296.774C675.071 296.586 674.914 296.125 675.096 295.747C681.617 282.183 687.255 266.836 687.31 266.683C687.427 266.366 687.729 266.174 688.047 266.192Z" fill="#6A3824"/>
<path d="M701.51 270.859L699.863 275.095C699.887 275.068 700.085 274.851 700.405 274.521C697.459 281.385 692.529 292.715 689.005 300.049C688.913 300.237 688.755 300.371 688.571 300.434C688.389 300.495 688.182 300.488 687.994 300.394C687.618 300.204 687.462 299.745 687.645 299.366C692.947 288.335 701.447 268.212 701.531 268.01C701.668 267.688 701.998 267.51 702.326 267.558C702.218 268.686 701.957 269.804 701.51 270.859Z" fill="#6A3824"/>
<path d="M705.776 288.995C703.411 294.437 700.063 301.894 697.541 306.504C697.447 306.675 697.297 306.795 697.126 306.853C696.931 306.92 696.708 306.905 696.512 306.793C696.148 306.586 696.014 306.118 696.217 305.75C700.499 297.923 707.215 281.742 707.282 281.579C707.424 281.234 707.792 281.051 708.143 281.138C707.623 283.609 706.751 286.382 705.425 289.339C705.446 289.317 705.571 289.191 705.776 288.995Z" fill="#6A3824"/>
<path d="M673.467 377.398L673.421 377.526C665.556 399.347 658.18 421.343 649.872 443.014C642.448 462.384 631.84 481.766 613.598 492.906C605.401 497.917 595.42 500.581 586.055 498.467C578.646 496.795 572.344 492.346 566.672 487.487C565.411 486.405 563.179 483.664 560.796 481.018C559.896 480.021 558.977 479.039 558.078 478.158L558.193 481.381L560.786 554.178H360.572L362.018 521.148C342.486 525.113 332.512 525.451 329.598 525.587C299.839 526.939 281.759 498.35 278.293 471.643C272.697 428.523 290.144 380.311 311.777 343.727C321.386 327.479 333.682 307.614 349.092 296.359C365.582 284.32 387.043 281.189 406.501 277.153C406.683 277.113 407.093 276.998 407.636 276.842C408.488 276.591 409.675 276.24 410.851 275.933C412.779 275.428 413.963 274.621 414.354 274.983C414.368 274.997 414.381 275.006 414.394 275.016C414.678 275.281 414.966 275.538 415.262 275.791C418.283 278.413 421.698 280.633 425.166 282.498C436.908 288.807 449.279 291.042 449.279 291.042C464.592 291.658 473.358 286.798 478.104 282.425C481.189 279.58 482.572 276.94 482.944 276.15C482.981 276.071 483.004 276.014 483.025 275.973C483.042 275.929 483.052 275.906 483.052 275.906C484.59 276.125 486.271 276.217 488.293 276.413C490.506 276.629 493.131 276.971 496.434 277.744C517.016 282.576 537.653 289.016 554.318 302.561C569.181 314.641 578.579 330.934 587.102 347.73C587.668 348.841 588.228 349.958 588.786 351.074C589.31 352.122 590.357 352.645 591.572 353.017C592.778 353.382 594.148 353.593 595.314 354.015C596.746 354.362 598.441 354.777 600.319 355.235C613.456 358.437 635.331 363.772 635.331 363.772C635.331 363.772 643.01 366.515 651.476 369.54C652.337 369.847 653.206 370.156 654.079 370.47C658.947 372.208 663.849 373.96 667.503 375.264C671.077 376.542 673.465 377.394 673.467 377.398Z" fill="#2563EB"/>
<path d="M484.955 273.938C484.955 273.938 472.543 295.343 456.982 304.267C456.982 304.267 429.707 295.615 413.977 274.514C413.977 274.514 452.919 307.701 484.955 273.938Z" fill="white"/>
<path d="M501.68 466.794C505.726 466.794 509.808 465.451 512.099 461.687L509.476 460.091C507.13 463.947 501.845 464.244 497.684 463.237C493.297 462.175 489.014 459.103 485.933 454.812C480.134 446.734 477.853 435.93 476.514 427.42C475.503 420.986 474.96 414.859 474.902 409.211L471.833 409.244C471.892 415.039 472.449 421.316 473.483 427.896C474.874 436.741 477.264 447.998 483.439 456.602C486.942 461.48 491.872 464.987 496.963 466.218C498.452 466.579 500.063 466.794 501.68 466.794Z" fill="#E9F8FF"/>
<path d="M482.82 464.191C483.9 464.191 484.991 464.087 486.091 463.88C492.55 462.66 498.696 458.319 504.359 450.977C511.856 441.261 517.9 429.049 521.839 415.659L518.894 414.792C515.063 427.821 509.197 439.686 501.93 449.103C496.739 455.831 491.218 459.788 485.521 460.864C477.838 462.316 472.465 457.25 469.946 454.1L467.55 456.019C471.826 461.363 477.157 464.191 482.82 464.191Z" fill="#E9F8FF"/>
<path d="M505.926 364.506C505.849 366.171 505.761 367.787 505.663 369.341C504.052 368.681 502.32 368.284 500.48 368.211C500.57 366.724 500.651 365.184 500.714 363.595C501.075 355.166 501.084 345.411 500.186 335.212C496.465 292.93 483.324 277.168 483.025 275.973C482.25 272.875 481.667 269.773 481.231 266.786C486.169 272.8 490.626 279.722 494.105 287.516C500.066 300.875 503.866 316.811 505.395 334.885C506.306 345.638 506.308 355.799 505.926 364.506Z" fill="#171717"/>
<path d="M507.879 461.098C508.036 463.233 509.895 464.839 512.03 464.68C514.167 464.522 515.771 462.664 515.614 460.529C515.456 458.391 513.597 456.788 511.46 456.945C509.325 457.102 507.722 458.961 507.879 461.098Z" fill="#315C93"/>
<path d="M470.972 407.928C470.97 408.661 471.309 409.319 471.841 409.735C472.23 410.051 472.727 410.238 473.264 410.238H473.274C473.912 410.238 474.492 409.977 474.91 409.555C475.321 409.14 475.572 408.572 475.576 407.945C475.629 392.017 479.245 380.877 486.625 373.897C489.72 370.965 493.309 369.078 497.007 368.439C498.201 368.234 499.357 368.161 500.478 368.209C502.319 368.284 504.05 368.683 505.663 369.343C512.553 372.164 517.298 379.763 519.166 387.417C521.692 397.765 521.387 405.133 518.044 414.611C517.789 415.335 517.913 416.1 518.32 416.685C518.583 417.073 518.97 417.379 519.446 417.548C519.699 417.637 519.958 417.681 520.213 417.681C520.599 417.681 520.977 417.581 521.311 417.397C521.796 417.14 522.185 416.704 522.381 416.146C526.013 405.856 526.365 397.498 523.64 386.327C521.32 376.824 515.091 367.426 505.924 364.504C504.28 363.981 502.544 363.664 500.714 363.597C499.271 363.54 497.775 363.637 496.225 363.904C491.63 364.698 487.214 366.996 483.462 370.551C475.117 378.447 471.033 390.672 470.972 407.928Z" fill="#171717"/>
<path d="M464.912 454.635C464.926 456.776 466.673 458.503 468.816 458.487C470.957 458.474 472.681 456.726 472.668 454.584C472.655 452.443 470.907 450.716 468.764 450.732C466.623 450.745 464.897 452.493 464.912 454.635Z" fill="#315C93"/>
<path d="M662.466 343.023L554.567 349.762L502.266 489.233C502.266 489.233 605.846 474.651 606.936 474.651C608.025 474.651 662.466 343.023 662.466 343.023Z" fill="#F2F2F3"/>
<path d="M585.621 429.849C585.08 431.472 583.867 433.095 582.784 434.317C581.684 435.558 580.718 436.386 580.718 436.386C580.718 436.386 580.986 436.54 581.268 436.897C582.051 437.888 582.941 440.444 578.538 445.648C573.154 452.013 566.683 457.333 560.32 462.673C555.944 466.345 551.325 468.701 545.719 469.779C540.066 470.868 534.263 470.957 528.527 470.654C520.378 470.22 512.279 469.01 504.12 468.802C495.762 468.588 487.59 469.597 479.953 473.099C474.732 475.497 469.861 476.257 464.62 478.624C464.62 478.624 458.098 466.731 455.028 430.666C469.671 427.378 484.129 425.621 496.775 416.942C502.309 413.146 508.206 410.08 514.316 407.301C520.518 404.479 527.014 401.607 533.713 400.195C534.399 400.051 535.09 399.925 535.786 399.842L528.347 419.68C532.084 419.632 535.821 419.584 539.56 419.536C542.238 419.501 544.852 419.413 547.446 418.642C552.685 417.08 557.542 414.615 562.867 413.236C566.478 412.3 570.134 410.84 573.932 411.314C576.179 411.594 579.584 412.48 579.582 415.074C579.582 415.348 579.544 415.642 579.461 415.956C579.492 415.837 579.862 415.843 580.349 415.906C581.326 416.035 582.778 416.399 582.949 416.466C584.926 417.245 586.003 419.979 585.577 421.773C585.525 421.989 585.145 422.712 584.683 423.503C583.981 424.706 583.094 426.062 582.897 426.035C582.897 426.035 583.012 426.052 583.196 426.095C584.073 426.306 586.521 427.148 585.621 429.849Z" fill="#B28270"/>
<path d="M580.349 415.906C580.367 416.215 580.223 416.524 579.944 416.704C576.234 419.1 572.519 421.492 568.803 423.879C567.721 424.573 566.65 425.289 565.58 426.004C560.905 429.127 556.071 432.358 550.35 433.77C545.581 434.948 540.876 435.562 536.653 435.562C536.251 435.562 535.85 435.556 535.455 435.544C534.963 435.531 534.576 435.12 534.591 434.629C534.605 434.138 535.011 433.756 535.506 433.764C539.867 433.898 544.852 433.294 549.925 432.041C555.342 430.704 560.044 427.562 564.592 424.523C565.67 423.802 566.75 423.081 567.84 422.381C571.556 419.994 575.27 417.604 578.978 415.208C579.164 415.087 579.379 415.045 579.582 415.074C579.582 415.348 579.544 415.642 579.461 415.956C579.492 415.837 579.862 415.843 580.349 415.906Z" fill="#6A3824"/>
<path d="M582.897 426.035C582.897 426.035 583.012 426.052 583.196 426.095C579.839 428.494 576.488 430.9 573.139 433.309C570.545 435.176 567.606 437.292 564.742 439.494C562.361 441.326 559.146 443.594 555.396 444.888C553.955 445.385 552.505 445.65 550.896 445.922C547.936 446.425 544.774 446.573 542.085 446.573C538.396 446.573 535.589 446.295 535.392 446.275C534.902 446.226 534.546 445.788 534.595 445.299C534.645 444.81 535.077 444.463 535.57 444.503C535.652 444.512 543.819 445.316 550.598 444.167C552.185 443.901 553.501 443.659 554.815 443.206C558.323 441.994 561.383 439.832 563.656 438.084C566.543 435.865 569.494 433.739 572.099 431.865C575.964 429.083 579.834 426.307 583.709 423.541C584.006 423.326 584.39 423.324 584.683 423.503C583.981 424.706 583.095 426.062 582.897 426.035Z" fill="#6A3824"/>
<path d="M580.718 436.386C580.718 436.386 580.987 436.54 581.269 436.897C578.219 439.46 575.057 442.147 571.852 444.908C571.213 445.458 570.578 446.014 569.943 446.573C565.963 450.068 561.846 453.684 556.588 455.551C549.86 457.941 543.773 459.182 537.982 459.347H537.957C537.477 459.347 537.08 458.965 537.067 458.482C537.053 457.993 537.441 457.582 537.932 457.567C543.535 457.407 549.442 456.201 555.993 453.872C560.927 452.121 564.737 448.775 568.769 445.234C569.408 444.674 570.047 444.113 570.689 443.559C574.424 440.344 578.098 437.225 581.61 434.288C581.958 433.998 582.46 434.017 582.784 434.317C581.685 435.558 580.718 436.386 580.718 436.386Z" fill="#6A3824"/>
<path d="M387.208 393.544L380.816 430.965L380.628 432.07L379.525 432.201C379.523 432.164 379.527 432.128 379.533 432.089L379.701 431.096L386.147 393.364C386.199 393.071 386.475 392.875 386.769 392.923C387.062 392.973 387.258 393.251 387.208 393.544Z" fill="#171717"/>
<path d="M466.865 482.661L363.969 522.637C363.906 522.662 363.839 522.675 363.775 522.675C363.559 522.675 363.355 522.545 363.273 522.332C363.165 522.054 363.303 521.743 363.58 521.635L465.413 482.07C455.547 460.078 454.3 428.161 454.167 423.417L380.628 432.07L379.525 432.201L357.74 434.764C357.447 434.798 357.178 434.587 357.144 434.292C357.107 433.996 357.32 433.73 357.614 433.695L379.701 431.096L380.816 430.965L455.22 422.21L455.23 422.807C455.234 423.162 455.869 458.66 466.627 482.141L466.865 482.661Z" fill="#171717"/>
<path d="M416.15 267.753C416.075 270.477 415.484 273.058 415.292 275.567C412.538 278.573 409.712 282.068 406.982 286.108C395.998 302.358 384.451 330.771 389.619 375.349C389.93 378.013 390.298 380.734 390.73 383.515C390.951 384.939 389.976 386.272 388.555 386.493C388.416 386.514 388.284 386.523 388.148 386.523C386.886 386.523 385.775 385.604 385.575 384.317C385.117 381.369 384.722 378.449 384.396 375.564C382.199 356.38 382.819 338.596 386.256 322.576C389.435 307.753 395.019 294.407 402.85 282.906C407.124 276.633 412.041 271.694 416.15 267.753Z" fill="#171717"/>
<path d="M374.693 388.205C374.693 395.296 380.44 401.043 387.53 401.043C394.621 401.043 400.368 395.296 400.368 388.205C400.368 381.115 394.621 375.368 387.53 375.368C380.44 375.368 374.693 381.115 374.693 388.205Z" fill="#171717"/>
<path d="M407.732 209.286C405.191 202.802 402.651 196.318 400.107 189.834C398.108 184.741 395.125 179.688 394.279 174.125C393.337 167.938 396.044 162.496 399.06 157.271C401.811 152.505 405.81 148.433 411.043 146.493L407.732 209.286Z" fill="#171717"/>
<path d="M413.213 204.235C413.234 203.923 411.582 170.781 429.461 162.667C430.161 162.35 432.26 163.185 432.933 163.359C436.2 164.203 439.364 165.468 442.368 167C449.31 170.542 454.864 176.795 462.345 179.236C471.761 182.307 481.63 179.84 491.067 182.096C491.483 182.196 492.375 196.138 492.532 202.14C493.77 197.573 495.421 193.096 496.659 188.528C497.656 184.849 498.711 181.181 499.653 177.486C501.819 168.976 503.829 161.345 500.192 152.916C497.067 145.676 491.466 139.444 484.882 135.164C475.996 129.39 465.463 126.823 454.979 126.203C449.671 125.889 444.34 126.055 439.049 126.547C434.295 126.988 429.06 127.272 424.602 129.098C419.438 131.216 415.73 135.434 413.213 140.314C411.302 144.021 409.777 148.111 408.97 152.216L407.429 208.515L414.471 210.8L413.213 204.235Z" fill="#171717"/>
<path d="M415.415 205.575C415.3 205.548 414.604 204.067 414.485 203.911C413.539 202.685 412.154 201.744 410.51 201.231C406.144 199.869 402.023 200.631 399.579 203.808C396.201 208.203 396.911 214.121 400.347 218.786C404.458 224.368 411.903 227.223 419.399 227.99C419.399 227.99 425.93 222.061 425.565 221.18C425.201 220.3 423.616 208.13 422.2 207.491C420.786 206.852 415.436 205.58 415.415 205.575Z" fill="#B28270"/>
<path d="M413.338 222.746C413.303 222.746 413.269 222.742 413.232 222.738C403.719 221.286 402.461 213.325 402.449 213.244C402.396 212.864 402.658 212.513 403.036 212.459C403.41 212.406 403.765 212.667 403.821 213.045C403.865 213.34 404.976 220.075 413.441 221.368C413.819 221.426 414.08 221.779 414.023 222.157C413.969 222.5 413.674 222.746 413.338 222.746Z" fill="#6A3824"/>
<path d="M725.811 114.038H582.03C572.538 114.038 564.844 121.732 564.844 131.222V154.562H564.621C564.621 154.562 564.7 154.973 564.844 155.736V190.381C564.844 197.186 568.797 203.064 574.533 205.849C578.656 226.722 582.609 245.921 583.104 245.424C583.879 244.651 601.612 220.923 611.578 207.568H725.811C735.303 207.568 742.997 199.873 742.997 190.381V131.222C742.997 121.732 735.303 114.038 725.811 114.038Z" fill="#96B7FF"/>
<path d="M716.853 141.926H586.089C585.426 141.926 584.887 141.387 584.887 140.723V137.542C584.887 136.879 585.426 136.34 586.089 136.34H716.853C717.516 136.34 718.056 136.879 718.056 137.542V140.723C718.056 141.387 717.516 141.926 716.853 141.926Z" fill="white"/>
<path d="M715.262 181.281H587.68C586.137 181.281 584.887 180.03 584.887 178.488C584.887 176.945 586.137 175.695 587.68 175.695H715.262C716.805 175.695 718.056 176.945 718.056 178.488C718.056 180.03 716.805 181.281 715.262 181.281Z" fill="white"/>
<path d="M657.225 161.603H586.089C585.426 161.603 584.887 161.065 584.887 160.4V157.219C584.887 156.555 585.426 156.016 586.089 156.016H657.225C657.889 156.016 658.428 156.555 658.428 157.219V160.4C658.428 161.065 657.889 161.603 657.225 161.603Z" fill="white"/>
<path d="M881.299 451.004V467.497H864.493V484.304H847.999V467.497H831.192V451.004H847.999V434.199H864.493V451.004H881.299Z" fill="#96B7FF"/>
<path d="M892.94 482.019C892.94 489.7 886.694 495.944 879.019 495.944H833.478C825.799 495.944 819.553 489.7 819.553 482.019V436.478C819.553 428.803 825.799 422.558 833.478 422.558H879.019C886.694 422.558 892.94 428.803 892.94 436.478V482.019ZM879.019 419H833.478C823.84 419 816 426.844 816 436.478V482.019C816 491.659 823.84 499.497 833.478 499.497H879.019C888.653 499.497 896.497 491.659 896.497 482.019V436.478C896.497 426.844 888.653 419 879.019 419Z" fill="#96B7FF"/>
<path d="M282.287 620.627V633.834H268.83V647.29H255.622V633.834H242.166V620.627H255.622V607.17H268.83V620.627H282.287Z" fill="#96B7FF"/>
<path d="M291.609 645.462C291.609 651.612 286.608 656.611 280.461 656.611H243.995C237.845 656.611 232.844 651.612 232.844 645.462V608.996C232.844 602.85 237.845 597.849 243.995 597.849H280.461C286.608 597.849 291.609 602.85 291.609 608.996V645.462ZM280.461 595H243.995C236.277 595 230 601.281 230 608.996V645.462C230 653.179 236.277 659.456 243.995 659.456H280.461C288.175 659.456 294.455 653.179 294.455 645.462V608.996C294.455 601.281 288.175 595 280.461 595Z" fill="#96B7FF"/>
<path d="M844.005 566.624H665.301C664.439 566.624 663.741 565.926 663.741 565.064V559.937C663.741 559.075 664.439 558.377 665.301 558.377H844.005C844.866 558.377 845.565 559.075 845.565 559.937V565.064C845.565 565.926 844.866 566.624 844.005 566.624Z" fill="white"/>
<path d="M807.786 585.094H666.736C665.875 585.094 665.177 584.395 665.177 583.534V578.405C665.177 577.543 665.875 576.845 666.736 576.845H807.786C808.647 576.845 809.345 577.543 809.345 578.405V583.534C809.345 584.395 808.647 585.094 807.786 585.094Z" fill="white"/>
<path d="M807.786 603.563H666.736C665.875 603.563 665.177 602.865 665.177 602.004V596.874C665.177 596.013 665.875 595.315 666.736 595.315H807.786C808.647 595.315 809.345 596.013 809.345 596.874V602.004C809.345 602.865 808.647 603.563 807.786 603.563Z" fill="white"/>
<path d="M177.391 223V207H183.703C184.911 207 185.943 207.216 186.797 207.648C187.656 208.076 188.31 208.682 188.758 209.469C189.211 210.25 189.438 211.169 189.438 212.227C189.438 213.289 189.208 214.203 188.75 214.969C188.292 215.729 187.628 216.312 186.758 216.719C185.893 217.125 184.846 217.328 183.617 217.328H179.391V214.609H183.07C183.716 214.609 184.253 214.521 184.68 214.344C185.107 214.167 185.424 213.901 185.633 213.547C185.846 213.193 185.953 212.753 185.953 212.227C185.953 211.695 185.846 211.247 185.633 210.883C185.424 210.518 185.104 210.242 184.672 210.055C184.245 209.862 183.706 209.766 183.055 209.766H180.773V223H177.391ZM186.031 215.719L190.008 223H186.273L182.383 215.719H186.031ZM196.994 223.234C195.781 223.234 194.731 222.977 193.846 222.461C192.965 221.94 192.286 221.216 191.807 220.289C191.327 219.357 191.088 218.276 191.088 217.047C191.088 215.807 191.327 214.724 191.807 213.797C192.286 212.865 192.965 212.141 193.846 211.625C194.731 211.104 195.781 210.844 196.994 210.844C198.208 210.844 199.255 211.104 200.135 211.625C201.02 212.141 201.702 212.865 202.182 213.797C202.661 214.724 202.9 215.807 202.9 217.047C202.9 218.276 202.661 219.357 202.182 220.289C201.702 221.216 201.02 221.94 200.135 222.461C199.255 222.977 198.208 223.234 196.994 223.234ZM197.01 220.656C197.562 220.656 198.023 220.5 198.393 220.188C198.762 219.87 199.041 219.437 199.229 218.891C199.421 218.344 199.518 217.721 199.518 217.023C199.518 216.326 199.421 215.703 199.229 215.156C199.041 214.609 198.762 214.177 198.393 213.859C198.023 213.542 197.562 213.383 197.01 213.383C196.452 213.383 195.984 213.542 195.604 213.859C195.229 214.177 194.945 214.609 194.752 215.156C194.564 215.703 194.471 216.326 194.471 217.023C194.471 217.721 194.564 218.344 194.752 218.891C194.945 219.437 195.229 219.87 195.604 220.188C195.984 220.5 196.452 220.656 197.01 220.656ZM205.127 223V207H208.455V213.016H208.557C208.702 212.693 208.913 212.365 209.189 212.031C209.471 211.693 209.835 211.411 210.283 211.188C210.736 210.958 211.299 210.844 211.971 210.844C212.846 210.844 213.653 211.073 214.393 211.531C215.132 211.984 215.723 212.669 216.166 213.586C216.609 214.497 216.83 215.641 216.83 217.016C216.83 218.354 216.614 219.484 216.182 220.406C215.755 221.323 215.171 222.018 214.432 222.492C213.697 222.961 212.874 223.195 211.963 223.195C211.317 223.195 210.768 223.089 210.314 222.875C209.867 222.661 209.499 222.393 209.213 222.07C208.926 221.742 208.708 221.411 208.557 221.078H208.408V223H205.127ZM208.385 217C208.385 217.714 208.484 218.336 208.682 218.867C208.88 219.398 209.166 219.812 209.541 220.109C209.916 220.401 210.372 220.547 210.908 220.547C211.45 220.547 211.908 220.398 212.283 220.102C212.658 219.799 212.942 219.383 213.135 218.852C213.333 218.315 213.432 217.698 213.432 217C213.432 216.307 213.335 215.698 213.143 215.172C212.95 214.646 212.666 214.234 212.291 213.937C211.916 213.641 211.455 213.492 210.908 213.492C210.367 213.492 209.908 213.635 209.533 213.922C209.163 214.208 208.88 214.615 208.682 215.141C208.484 215.667 208.385 216.286 208.385 217ZM224.473 223.234C223.259 223.234 222.21 222.977 221.324 222.461C220.444 221.94 219.764 221.216 219.285 220.289C218.806 219.357 218.566 218.276 218.566 217.047C218.566 215.807 218.806 214.724 219.285 213.797C219.764 212.865 220.444 212.141 221.324 211.625C222.21 211.104 223.259 210.844 224.473 210.844C225.686 210.844 226.733 211.104 227.613 211.625C228.499 212.141 229.181 212.865 229.66 213.797C230.139 214.724 230.379 215.807 230.379 217.047C230.379 218.276 230.139 219.357 229.66 220.289C229.181 221.216 228.499 221.94 227.613 222.461C226.733 222.977 225.686 223.234 224.473 223.234ZM224.488 220.656C225.04 220.656 225.501 220.5 225.871 220.188C226.241 219.87 226.52 219.437 226.707 218.891C226.9 218.344 226.996 217.721 226.996 217.023C226.996 216.326 226.9 215.703 226.707 215.156C226.52 214.609 226.241 214.177 225.871 213.859C225.501 213.542 225.04 213.383 224.488 213.383C223.931 213.383 223.462 213.542 223.082 213.859C222.707 214.177 222.423 214.609 222.23 215.156C222.043 215.703 221.949 216.326 221.949 217.023C221.949 217.721 222.043 218.344 222.23 218.891C222.423 219.437 222.707 219.87 223.082 220.188C223.462 220.5 223.931 220.656 224.488 220.656Z" fill="#171717"/>
<path d="M246.723 212.602H243.301C243.238 212.159 243.111 211.766 242.918 211.422C242.725 211.073 242.478 210.776 242.176 210.531C241.874 210.286 241.525 210.099 241.129 209.969C240.738 209.839 240.314 209.773 239.855 209.773C239.027 209.773 238.306 209.979 237.691 210.391C237.077 210.797 236.6 211.391 236.262 212.172C235.923 212.948 235.754 213.891 235.754 215C235.754 216.141 235.923 217.099 236.262 217.875C236.605 218.651 237.085 219.237 237.699 219.633C238.314 220.029 239.025 220.227 239.832 220.227C240.285 220.227 240.704 220.167 241.09 220.047C241.48 219.927 241.827 219.753 242.129 219.523C242.431 219.289 242.681 219.005 242.879 218.672C243.082 218.339 243.223 217.958 243.301 217.531L246.723 217.547C246.634 218.281 246.413 218.99 246.059 219.672C245.71 220.349 245.238 220.956 244.645 221.492C244.056 222.023 243.353 222.445 242.535 222.758C241.723 223.065 240.803 223.219 239.777 223.219C238.35 223.219 237.074 222.896 235.949 222.25C234.829 221.604 233.944 220.669 233.293 219.445C232.647 218.221 232.324 216.74 232.324 215C232.324 213.255 232.652 211.771 233.309 210.547C233.965 209.323 234.855 208.391 235.98 207.75C237.105 207.104 238.371 206.781 239.777 206.781C240.704 206.781 241.564 206.911 242.355 207.172C243.152 207.432 243.858 207.812 244.473 208.312C245.087 208.807 245.587 209.414 245.973 210.133C246.363 210.852 246.613 211.674 246.723 212.602ZM252.508 223.227C251.742 223.227 251.06 223.094 250.461 222.828C249.862 222.557 249.388 222.159 249.039 221.633C248.695 221.102 248.523 220.44 248.523 219.648C248.523 218.982 248.646 218.422 248.891 217.969C249.135 217.516 249.469 217.151 249.891 216.875C250.313 216.599 250.792 216.391 251.328 216.25C251.87 216.109 252.438 216.01 253.031 215.953C253.729 215.88 254.292 215.812 254.719 215.75C255.146 215.682 255.456 215.583 255.648 215.453C255.841 215.323 255.938 215.13 255.938 214.875V214.828C255.938 214.333 255.781 213.951 255.469 213.68C255.161 213.409 254.724 213.273 254.156 213.273C253.557 213.273 253.081 213.406 252.727 213.672C252.372 213.932 252.138 214.26 252.023 214.656L248.945 214.406C249.102 213.677 249.409 213.047 249.867 212.516C250.326 211.979 250.917 211.568 251.641 211.281C252.37 210.99 253.214 210.844 254.172 210.844C254.839 210.844 255.477 210.922 256.086 211.078C256.701 211.234 257.245 211.477 257.719 211.805C258.198 212.133 258.576 212.555 258.852 213.07C259.128 213.581 259.266 214.193 259.266 214.906V223H256.109V221.336H256.016C255.823 221.711 255.565 222.042 255.242 222.328C254.919 222.609 254.531 222.831 254.078 222.992C253.625 223.148 253.102 223.227 252.508 223.227ZM253.461 220.93C253.951 220.93 254.383 220.833 254.758 220.641C255.133 220.443 255.427 220.177 255.641 219.844C255.854 219.51 255.961 219.133 255.961 218.711V217.438C255.857 217.505 255.714 217.568 255.531 217.625C255.354 217.677 255.154 217.727 254.93 217.773C254.706 217.815 254.482 217.854 254.258 217.891C254.034 217.922 253.831 217.951 253.648 217.977C253.258 218.034 252.917 218.125 252.625 218.25C252.333 218.375 252.107 218.544 251.945 218.758C251.784 218.966 251.703 219.227 251.703 219.539C251.703 219.992 251.867 220.339 252.195 220.578C252.529 220.812 252.951 220.93 253.461 220.93ZM261.848 223V211H265.074V213.094H265.199C265.418 212.349 265.785 211.786 266.301 211.406C266.816 211.021 267.41 210.828 268.082 210.828C268.249 210.828 268.428 210.839 268.621 210.859C268.814 210.88 268.983 210.909 269.129 210.945V213.898C268.973 213.852 268.757 213.81 268.48 213.773C268.204 213.737 267.952 213.719 267.723 213.719C267.233 213.719 266.796 213.826 266.41 214.039C266.03 214.247 265.728 214.539 265.504 214.914C265.285 215.289 265.176 215.721 265.176 216.211V223H261.848ZM275.76 223.234C274.525 223.234 273.463 222.984 272.572 222.484C271.687 221.979 271.005 221.266 270.525 220.344C270.046 219.417 269.807 218.32 269.807 217.055C269.807 215.82 270.046 214.737 270.525 213.805C271.005 212.872 271.679 212.146 272.549 211.625C273.424 211.104 274.45 210.844 275.627 210.844C276.419 210.844 277.156 210.971 277.838 211.227C278.525 211.477 279.124 211.854 279.635 212.359C280.15 212.865 280.551 213.5 280.838 214.266C281.124 215.026 281.268 215.917 281.268 216.937V217.852H271.135V215.789H278.135C278.135 215.31 278.031 214.885 277.822 214.516C277.614 214.146 277.325 213.857 276.955 213.648C276.59 213.435 276.166 213.328 275.682 213.328C275.176 213.328 274.729 213.445 274.338 213.68C273.952 213.909 273.65 214.219 273.432 214.609C273.213 214.995 273.101 215.424 273.096 215.898V217.859C273.096 218.453 273.205 218.966 273.424 219.398C273.648 219.831 273.963 220.164 274.369 220.398C274.775 220.633 275.257 220.75 275.814 220.75C276.184 220.75 276.523 220.698 276.83 220.594C277.137 220.49 277.4 220.333 277.619 220.125C277.838 219.917 278.005 219.661 278.119 219.359L281.197 219.562C281.041 220.302 280.721 220.948 280.236 221.5C279.757 222.047 279.137 222.474 278.377 222.781C277.622 223.083 276.749 223.234 275.76 223.234Z" fill="#2463EB"/>
</svg>
