<svg width="872" height="871" viewBox="0 0 872 871" fill="none" xmlns="http://www.w3.org/2000/svg">
<path d="M441.098 0C425.932 79.1667 404.698 277.1 441.098 435.5C448.765 361 459.498 169.6 441.098 0Z" fill="#D9D9D9"/>
<path d="M871.379 440.219C792.212 425.053 594.279 403.819 435.879 440.219C510.379 447.886 701.779 458.619 871.379 440.219Z" fill="#D9D9D9"/>
<path d="M810.582 657.179C749.605 604.461 588.806 487.105 433.428 439.429C494.113 483.318 654.504 588.313 810.582 657.179Z" fill="#D9D9D9"/>
<path d="M61.6761 657.179C122.653 604.461 283.452 487.105 438.83 439.429C378.145 483.318 217.754 588.313 61.6761 657.179Z" fill="#D9D9D9"/>
<path d="M649.45 814.672C623.002 738.529 542.424 556.497 431.7 437.518C462.311 505.87 548.716 676.994 649.45 814.672Z" fill="#D9D9D9"/>
<path d="M222.406 814.924C248.854 738.781 329.432 556.749 440.156 437.77C409.545 506.123 323.141 677.246 222.406 814.924Z" fill="#D9D9D9"/>
<path d="M441.098 435C425.932 514.167 404.698 712.1 441.098 870.5C448.765 796 459.498 604.6 441.098 435Z" fill="#D9D9D9"/>
<path d="M436.379 440.219C357.212 425.053 159.279 403.819 0.879028 440.219C75.379 447.886 266.779 458.619 436.379 440.219Z" fill="#D9D9D9"/>
<path d="M433.861 439.679C372.884 386.961 212.085 269.605 56.7068 221.929C117.392 265.818 277.783 370.814 433.861 439.679Z" fill="#D9D9D9"/>
<path d="M438.397 439.679C499.374 386.961 660.173 269.605 815.551 221.929C754.866 265.818 594.475 370.814 438.397 439.679Z" fill="#D9D9D9"/>
<path d="M431.95 437.951C405.502 361.807 324.924 179.776 214.2 60.7971C244.811 129.149 331.215 300.273 431.95 437.951Z" fill="#D9D9D9"/>
<path d="M439.906 438.203C466.354 362.06 546.932 180.028 657.656 61.0492C627.045 129.401 540.641 300.525 439.906 438.203Z" fill="#D9D9D9"/>
<path d="M467.5 438.203C467.5 452.839 455.636 464.703 441 464.703C426.364 464.703 414.5 452.839 414.5 438.203C414.5 423.568 426.364 411.703 441 411.703C455.636 411.703 467.5 423.568 467.5 438.203Z" fill="#D9D9D9"/>
</svg>
